{"title":"One in the Gun 2010 DVDrip English Klam","uid":6535593,"size":1216369142,"categoryP":"video","categoryS":"movies","magnet":"?xt=urn:btih:1b3af57ea82da97b357d8fa111ba33ce6e451cf7&amp;dn=One+in+the+Gun+2010+DVDrip+English+Klam&amp;tr=udp%3A%2F%2Ftracker.openbittorrent.com%3A80&amp;tr=udp%3A%2F%2Fopen.demonii.com%3A1337&amp;tr=udp%3A%2F%2Ftracker.coppersurfer.tk%3A6969&amp;tr=udp%3A%2F%2Fexodus.desync.com%3A6969","seeders":0,"leechers":1,"uploader":"Klambake","files":-1,"time":1310498940,"description":"With: Steven Man, Katherine Randolph and Steven Bauer\n\nWanneer Mickey Lewis (Steven Man), een dakloze kunstenaar, een pact sluit met Katrina Webb (Katherine Randolph), de mooie rijke vrouw van Arthur Webb (Steven Bauer), om hun huis te schilderen, ontbranden dodelijke passies.\n\nA sexy brain teaser of a thriller with nods to classic film noir of the past mixed with a post-modern flair of David Lynch-style surrealism and surprises...\n\n------------------ Dutch Friends ------------------\nYou can find my Friends at: http://www.Film-Test.nl \n------ They got my dutchs subs ---- and more ------\n\nGeneral:\n\nComplete name                    : One in the Gun\\One in the Gun.avi\nFormat                           : AVI\nFormat/Info                      : Audio Video Interleave\nFile size                        : 1.13 GiB\nDuration                         : 1h 28mn\nOverall bit rate                 : 1 828 Kbps\n\nVideo:\n\nFormat                           : MPEG-4 Visual\nFormat profile                   : Simple@L3\nFormat settings, BVOP            : No\nFormat settings, QPel            : No\nFormat settings, GMC             : No warppoints\nFormat settings, Matrix          : Default (H.263)\nCodec ID                         : XVID\nCodec ID/Hint                    : XviD\nDuration                         : 1h 28mn\nBit rate                         : 1 369 Kbps\nWidth                            : 704 pixels\nHeight                           : 396 pixels\nDisplay aspect ratio             : 16:9\nFrame rate                       : 25.000 fps\nColor space                      : YUV\nChroma subsampling               : 4:2:0\nBit depth                        : 8 bits\nScan type                        : Progressive\nBits/(Pixel*Frame)               : 0.196\nStream size                      : 869 MiB (75%)\nWriting library                  : XviD 1.1.2 (UTC 2006-11-01)\n\nAudio:\n\nFormat                           : AC-3\nFormat/Info                      : Audio Coding 3\nMode extension                   : CM (complete main)\nCodec ID                         : 2000\nDuration                         : 1h 28mn\nBit rate mode                    : Constant\nBit rate                         : 448 Kbps\nChannel(s)                       : 6 channels\nChannel positions                : Front: L C R, Side: L R, LFE\nSampling rate                    : 48.0 KHz\nBit depth                        : 16 bits\nStream size                      : 284 MiB (25%)\nAlignment                        : Aligned on interleaves\nInterleave, duration             : 32 ms (0.80 video frame)\nInterleave, preload duration     : 992 ms\n","torrent":{"xt":"urn:btih:1b3af57ea82da97b357d8fa111ba33ce6e451cf7","amp;dn":"One+in+the+Gun+2010+DVDrip+English+Klam","amp;tr":["udp%3A%2F%2Ftracker.openbittorrent.com%3A80","udp%3A%2F%2Fopen.demonii.com%3A1337","udp%3A%2F%2Ftracker.coppersurfer.tk%3A6969","udp%3A%2F%2Fexodus.desync.com%3A6969"],"infoHash":"1b3af57ea82da97b357d8fa111ba33ce6e451cf7","infoHashBuffer":{"type":"Buffer","data":[27,58,245,126,168,45,169,123,53,125,143,161,17,186,51,206,110,69,28,247]},"announce":[],"urlList":[]}}